<?xml version="1.0"?>
<svg width="1785.9375" height="2033.4375" xmlns="http://www.w3.org/2000/svg">
 <metadata id="metadata3342">image/svg+xml</metadata>

 <g>
  <title>background</title>
  <rect x="-1" y="-1" width="4701.852345" height="5353.170465" id="canvas_background" fill="none"/>
 </g>
 <g>
  <title>Layer 1</title>
  <path d="m710.863892,1950.674438c-2.656372,-2.65625 -1.878662,-9.651978 1.91626,-17.237549c10.116821,-20.22229 36.929321,-34.738159 73.59375,-39.842407c13.262695,-1.846436 37.232544,-2.974487 110.516724,-5.201416c69.237183,-2.103882 115.459106,-3.984619 149.999878,-6.103394c116.764404,-7.162354 174.181641,-19.571777 177.715454,-38.40918c0.846558,-4.512207 -1.84668,-16.749023 -5.173706,-23.508057c-4.194336,-8.52124 -10.944702,-16.891479 -27.456543,-34.045532c-22.252441,-23.11792 -30.234741,-34.758423 -34.152954,-49.804321c-2.235107,-8.582886 -2.20813,-23.27063 0.054932,-30.20459c2.77417,-8.497559 6.695801,-12.25061 18.961548,-18.147095c15.609009,-7.503662 19.152222,-11.131226 21.085205,-21.587158c0.794556,-4.298462 0.706665,-5.594482 -0.505005,-7.443604c-2.103027,-3.209717 -3.579712,-3.812256 -19.5,-7.955688c-17.538574,-4.564941 -28.234375,-9.550659 -34.958984,-16.296265c-5.791016,-5.809082 -8.499268,-11.203003 -10.465576,-20.845215c-3.736328,-18.322388 3.672363,-32.26355 22.058472,-41.507813c9.701782,-4.878052 17.141479,-7.299561 43.305664,-14.095581c23.957031,-6.222656 34.10498,-9.876099 40.492432,-14.578247c11.289063,-8.310181 11.025757,-22.121216 -0.644043,-33.774414c-5.940796,-5.932251 -13.55127,-10.932983 -34.255005,-22.508423c-22.486572,-12.572144 -31.986084,-19.093506 -40.781128,-27.995728c-8.191895,-8.291504 -11.823975,-14.147583 -14.031738,-22.624146c-3.011108,-11.560425 -1.195923,-19.567871 5.88269,-25.949951c11.835449,-10.670776 33.626831,-16.226685 92.992676,-23.709595c63.022949,-7.943726 88.778442,-13.683105 109.907837,-24.491943c11.379517,-5.821167 21.033813,-15.189697 24.10083,-23.387207c3.684692,-9.848145 5.130981,-33.46582 6.569092,-107.272339c2.593628,-133.115601 1.738037,-462.385132 -1.250122,-481.153687c-10.895752,-68.433533 -42.182739,-119.964905 -93.067383,-153.286926c-29.192505,-19.116882 -68.593262,-32.661377 -110.947754,-38.139648c-20.9104,-2.704651 -69.346924,-6.622986 -116.25,-9.404236c-44.581787,-2.643616 -134.847534,-6.645935 -135.405273,-6.003784c-0.158691,0.182678 -8.187378,25.433716 -17.841675,56.113403c-116.435547,370.013245 -293.668091,911.848389 -332.56543,1016.71875c-5.269165,14.206055 -9.169189,22.557739 -19.262817,41.25c-18.704834,34.639282 -25.617188,44.184814 -39.657593,54.764648c-8.777222,6.61377 -21.744965,13.282715 -26.067352,13.405518c-4.759583,0.135376 -6.255493,-2.060913 -6.092163,-8.943848c0.178528,-7.523804 2.922546,-18.81604 14.505737,-59.695068c18.088837,-63.838257 41.981903,-140.471313 336.992645,-1080.846558c5.888916,-18.770325 10.706787,-34.424622 10.706787,-34.787292c0,-2.542908 -323.40271,-6.144592 -427.5,-4.760986l-59.53125,0.79126l-2.992126,-2.031677c-4.099365,-2.783447 -8.509277,-8.45166 -11.370392,-14.614685c-3.369659,-7.258545 -3.484558,-16.918274 -0.255096,-21.44635c3.177368,-4.454987 9.152802,-6.785919 20.217407,-7.886444c5.922668,-0.589111 99.710846,-1.011169 253.520081,-1.140869l244.119751,-0.205872l13.018066,-41.613373c7.159912,-22.88736 19.773682,-63.550873 28.030762,-90.363373c8.256958,-26.8125 15.912476,-51.64743 17.011963,-55.188782c2.326538,-7.492859 7.140991,-15.303101 12.997803,-21.085602c16.388794,-16.18103 44.655273,-23.857117 59.661255,-16.20166c7.597534,3.876007 10.426758,9.718781 9.295776,19.197754c-1.151245,9.649353 -16.970703,64.206879 -45.029053,155.293732c-8.494873,27.577271 -15.24646,50.339294 -15.003418,50.582306c0.24292,0.242981 38.078125,0.744873 84.078125,1.115295c75.880981,0.611053 85.202271,0.853851 100.521729,2.618469c103.773438,11.953522 194.500488,52.100403 245.833862,108.782043c32.952271,36.385559 52.755859,78.173401 60.213135,127.056091c3.828003,25.093323 4.026245,37.131348 3.412476,207.205383c-0.321899,89.203064 -0.617065,203.109314 -0.656128,253.124939c-0.03894,50.855225 -0.47644,95.689575 -0.991211,101.71875c-2.449097,28.692139 -11.308228,55.884033 -24.718994,75.872437c-16.84021,25.099854 -44.664429,42.077393 -77.723022,47.424194c-4.633911,0.74939 -21.943481,2.008057 -38.465454,2.796997c-62.383789,2.978394 -90.588013,6.764404 -97.396118,13.073975c-4.630005,4.290894 -3.005615,8.36792 7.19458,18.057129c10.346924,9.828491 18.799316,15.393188 38.130371,25.102783c9.539063,4.791382 19.948242,10.632813 23.13147,12.981201c14.692261,10.838135 21.633301,27.820801 20.754517,50.780273c-0.34668,9.05603 -0.755249,11.223755 -2.966675,15.744141c-1.488159,3.041504 -4.637573,7.134888 -7.502563,9.751343c-9.538818,8.711304 -20.927734,12.57373 -51.964844,17.623169c-24.962036,4.061279 -34.535278,6.817871 -39.61499,11.407104c-5.902466,5.33252 -6.862061,12.75708 -2.715576,21.011719c3.876953,7.71814 11.960327,12.543701 33.685303,20.109253c16.142334,5.621582 22.227661,8.722534 26.588257,13.549438c4.32605,4.788452 5.292725,7.244873 5.29187,13.447754c0,11.331665 -7.70813,20.751709 -28.124268,34.378418c-14.515381,9.688477 -19.116333,13.399292 -21.604858,17.426025c-6.897827,11.160889 -3.803101,17.800903 20.72229,44.462646c39.030151,42.429932 52.324341,64.732666 56.273071,94.405884c1.233765,9.270996 0.532837,21.710938 -1.435059,25.465942c-2.807739,5.357788 -9.579712,10.285645 -19.014404,13.836914c-23.337158,8.784058 -54.148315,12.710083 -156.81604,19.981934c-84.231567,5.966064 -86.277832,6.092529 -152.812378,9.444824c-86.267456,4.346558 -119.007324,6.873291 -152.8125,11.793579c-28.241943,4.110596 -60.230347,11.088379 -76.80481,16.754028c-8.240967,2.817017 -7.113403,2.702148 -8.909424,0.906128l0.000366,0zm286.337646,-1757.731567c-23.061157,-4.600891 -40.31604,-20.491455 -44.687378,-41.154236c-1.672119,-7.90332 -1.163086,-14.085693 1.8396,-22.345642c7.495972,-20.620651 31.939697,-40.234421 58.374756,-46.840256c10.891479,-2.72171 31.157837,-2.943573 41.167725,-0.450714c19.771484,4.923859 33.929932,17.773346 38.465698,34.909576c2.155273,8.142174 1.95874,21.020065 -0.43811,28.71666c-3.65686,11.742859 -13.477905,23.927826 -26.282959,32.609589c-18.793701,12.742004 -47.22229,18.787933 -68.439331,14.555023z" id="icon" fill="#000000"/>
 </g>
</svg>